<svg width="138" height="40" viewBox="0 0 138 40" fill="none" xmlns="http://www.w3.org/2000/svg">
<g clip-path="url(#clip0)">
<path d="M32.1356 20.0001L13.1462 38.9852C11.7987 40.3326 9.60915 40.3326 8.26171 38.9852L1.01058 31.7384C-0.33686 30.391 -0.33686 28.2014 1.01058 26.8539L20 7.8645L32.1356 20.0001Z" fill="url(#paint0_linear)"/>
<path d="M16.8041 28.9398L1.01058 13.1462C-0.33686 11.7987 -0.33686 9.60915 1.01058 8.26171L8.26171 1.01058C9.60915 -0.33686 11.7987 -0.33686 13.1462 1.01058L28.9354 16.7998L16.8041 28.9398Z" fill="url(#paint1_linear)"/>
<path d="M34.921 28.0499L23.986 38.9849C22.6386 40.3324 20.449 40.3324 19.1016 38.9849L11.8504 31.7381C10.503 30.3907 10.503 28.2011 11.8504 26.8536L22.7897 15.9143L34.921 28.0499Z" fill="url(#paint2_linear)"/>
<path d="M35.6423 12.6711L23.9817 1.01058C22.6343 -0.33686 20.4447 -0.33686 19.0972 1.01058L11.8504 8.26171C10.503 9.60915 10.503 11.7987 11.8504 13.1462L24.5259 25.826C28.0111 29.3112 28.0111 34.96 24.5259 38.4453L30.8355 32.1356L35.6423 27.3289C39.6889 23.2822 39.6889 16.7178 35.6423 12.6711Z" fill="url(#paint3_linear)"/>
<path d="M52.0535 19.2485H60.1252V26.5687C58.3459 28.4992 55.7115 29.6263 53.0036 29.6263C47.8384 29.6263 43.5024 25.5408 43.5024 20.7039C43.5024 15.8669 47.8384 11.803 53.0036 11.803C55.7115 11.803 58.3416 12.9302 60.1252 14.8347L56.5406 17.9701C55.6899 16.8688 54.3856 16.2167 53.0079 16.2167C50.5765 16.2167 48.5208 18.2724 48.5208 20.7039C48.5208 23.1612 50.5765 25.2169 53.0079 25.2169C53.8587 25.2169 54.6879 24.9664 55.4135 24.513V22.833H52.0535V19.2485Z" fill="white"/>
<path d="M61.6538 22.8331C61.6538 19.1492 64.9879 16.0657 68.974 16.0657C72.9343 16.0657 76.2683 19.1492 76.2683 22.8331C76.2683 26.517 72.9343 29.6265 68.974 29.6265C64.9879 29.6265 61.6538 26.517 61.6538 22.8331ZM71.7596 22.8331C71.7596 21.3302 70.4813 20.0734 68.9784 20.0734C67.4495 20.0734 66.1712 21.3259 66.1712 22.8331C66.1712 24.3403 67.4495 25.6144 68.9784 25.6144C70.4813 25.6144 71.7596 24.336 71.7596 22.8331Z" fill="white"/>
<path d="M78.1772 12.1052H83.0401V18.8986L88.8315 12.1052H94.5711L88.2053 19.3002L95.0721 29.3283H89.2548L84.8194 22.807L83.0401 24.7634V29.324H78.1772V12.1052Z" fill="white"/>
<path d="M94.7744 16.3635H99.4127L101.343 22.833L103.248 16.3635H107.208L109.138 22.833L111.043 16.3635H115.681L111.268 29.324H106.979L105.226 22.6559L103.52 29.324H99.2313L94.7744 16.3635Z" fill="white"/>
<path d="M116.912 12.481C116.912 11.1768 118.013 10.0237 119.417 10.0237C120.769 10.0237 121.874 11.1768 121.874 12.481C121.874 13.8328 120.773 14.9859 119.417 14.9859C118.018 14.9859 116.912 13.8328 116.912 12.481ZM116.964 16.3636H121.801V29.324H116.964V16.3636Z" fill="white"/>
<path d="M137.923 29.3283H132.507L130.123 25.0398L129.074 26.3441V29.3283H124.237V12.1052H129.074V20.9284L132.408 16.3678H137.824L133.285 21.9562L137.923 29.3283Z" fill="white"/>
</g>
<defs>
<linearGradient id="paint0_linear" x1="4.49829" y1="35.501" x2="19.1928" y2="20.8064" gradientUnits="userSpaceOnUse">
<stop stop-color="#FECE00"/>
<stop offset="0.5" stop-color="#FF1D79"/>
<stop offset="1" stop-color="#C200D5"/>
</linearGradient>
<linearGradient id="paint1_linear" x1="22.949" y1="22.949" x2="4.85977" y2="4.85977" gradientUnits="userSpaceOnUse">
<stop stop-color="#FECE00"/>
<stop offset="0.5" stop-color="#FF1D79"/>
<stop offset="1" stop-color="#C200D5"/>
</linearGradient>
<linearGradient id="paint2_linear" x1="28.802" y1="22.0338" x2="15.557" y2="35.2789" gradientUnits="userSpaceOnUse">
<stop stop-color="#4514C7"/>
<stop offset="0.5" stop-color="#1F64FD"/>
<stop offset="1" stop-color="#30E8FF"/>
</linearGradient>
<linearGradient id="paint3_linear" x1="11.9745" y1="7.44682" x2="32.8878" y2="28.3601" gradientUnits="userSpaceOnUse">
<stop stop-color="#4514C7"/>
<stop offset="0.5" stop-color="#1F64FD"/>
<stop offset="1" stop-color="#30E8FF"/>
</linearGradient>
<clipPath id="clip0">
<rect width="137.923" height="40" fill="white"/>
</clipPath>
</defs>
</svg>
